<svg xmlns="http://www.w3.org/2000/svg" width="2690" height="757" viewBox="0 0 2690 757">
  <g fill="none" fill-rule="evenodd" opacity=".6" transform="translate(-1339.573 -44.357)">
    <g transform="translate(1791.778)">
      <polygon stroke="#656565" stroke-width=".5" points="894.65 0 1789.301 800 0 800"/>
      <path stroke="#656565" stroke-linecap="square" stroke-width=".5" d="M894.65038,0.8492569 L894.65038,799.504823"/>
      <path stroke="#666" stroke-linecap="square" stroke-width=".5" d="M671.670517,199.915074 L1117.71044,199.915074"/>
    </g>
    <g transform="translate(896.137)">
      <polygon stroke="#656565" stroke-width=".5" points="894.65 0 1789.301 800 0 800"/>
      <path stroke="#656565" stroke-linecap="square" stroke-width=".5" d="M894.65038,0.8492569 L894.65038,799.504823"/>
      <path stroke="#666" stroke-linecap="square" stroke-width=".5" d="M671.670517,199.915074 L1117.71044,199.915074"/>
    </g>
    <g transform="translate(2687.42)">
      <polygon stroke="#656565" stroke-width=".5" points="894.65 0 1789.301 800 0 800"/>
      <path stroke="#656565" stroke-linecap="square" stroke-width=".5" d="M894.65038,0.8492569 L894.65038,799.504823"/>
      <path stroke="#666" stroke-linecap="square" stroke-width=".5" d="M671.670517,199.915074 L1117.71044,199.915074"/>
    </g>
    <g transform="matrix(1 0 0 -1 2239.554 800.469)">
      <polygon stroke="#656565" stroke-width=".5" points="894.65 0 1789.301 800 0 800"/>
      <path stroke="#656565" stroke-linecap="square" stroke-width=".5" d="M894.65038,0.8492569 L894.65038,799.504823"/>
      <path stroke="#666" stroke-linecap="square" stroke-width=".5" d="M671.670517,199.915074 L1117.71044,199.915074"/>
    </g>
    <g transform="matrix(1 0 0 -1 1343.913 800.469)">
      <polygon stroke="#656565" stroke-width=".5" points="894.65 0 1789.301 800 0 800"/>
      <path stroke="#656565" stroke-linecap="square" stroke-width=".5" d="M894.65038,0.8492569 L894.65038,799.504823"/>
      <path stroke="#666" stroke-linecap="square" stroke-width=".5" d="M671.670517,199.915074 L1117.71044,199.915074"/>
    </g>
    <g transform="translate(3581.36)">
      <polygon stroke="#656565" stroke-width=".5" points="894.65 0 1789.301 800 0 800"/>
      <path stroke="#656565" stroke-linecap="square" stroke-width=".5" d="M894.65038,0.8492569 L894.65038,799.504823"/>
      <path stroke="#666" stroke-linecap="square" stroke-width=".5" d="M671.670517,199.915074 L1117.71044,199.915074"/>
    </g>
    <g transform="translate(.496)">
      <polygon stroke="#656565" stroke-width=".5" points="894.65 0 1789.301 800 0 800"/>
      <path stroke="#656565" stroke-linecap="square" stroke-width=".5" d="M894.65038,0.8492569 L894.65038,799.504823"/>
      <path stroke="#666" stroke-linecap="square" stroke-width=".5" d="M671.670517,199.915074 L1117.71044,199.915074"/>
    </g>
    <g stroke="#656565" stroke-width=".5" transform="translate(3636.949 737.12)">
      <path stroke-linecap="square" d="M24.3969877,2.42307692 L24.3969877,62.2120046"/>
      <path d="M48.7722656,27.6281705 C48.7722656,42.0446828 37.8597928,53.7336623 24.3962575,53.7336623 C10.9356428,53.7336623 0.0217097326,42.0446828 0.0217097326,27.6281705 C0.0217097326,13.2116582 10.9356428,1.52111476 24.3962575,1.52111476 C37.8597928,1.52111476 48.7722656,13.2116582 48.7722656,27.6281705 Z"/>
    </g>
    <g stroke="#656565" stroke-width=".5" transform="translate(2996.234 705.127)">
      <polygon points="27.767 0 54.433 94.775 1.101 94.775"/>
      <path stroke-linecap="square" d="M27.7669195,0.825448344 L27.7669195,93.5191405"/>
    </g>
    <g stroke="#656565" stroke-width=".5" transform="translate(3207.52 602.307)">
      <polygon points="58.013 0 113.726 197.448 2.3 197.448"/>
      <path stroke-linecap="square" d="M58.0130283,1.71968405 L58.0130283,194.831543"/>
    </g>
    <g stroke="#656565" stroke-width=".5" transform="translate(3321.27 689.137)">
      <polygon points="32.229 0 63.181 110.571 1.278 110.571"/>
      <path stroke-linecap="square" d="M32.2294602,0.963023068 L32.2294602,109.105664"/>
    </g>
    <g stroke="#656565" stroke-width=".5" transform="translate(3676.533 689.137)">
      <polygon points="32.229 0 63.181 110.571 1.278 110.571"/>
      <path stroke-linecap="square" d="M32.2294602,0.963023068 L32.2294602,109.105664"/>
    </g>
  </g>
</svg>
