<?xml version="1.0" ?><!DOCTYPE svg  PUBLIC '-//W3C//DTD SVG 1.1//EN'  'http://www.w3.org/Graphics/SVG/1.1/DTD/svg11.dtd'><svg enable-background="new 0 0 128 128" id="Слой_1" version="1.1" viewBox="0 0 128 128" xml:space="preserve" xmlns="http://www.w3.org/2000/svg" xmlns:xlink="http://www.w3.org/1999/xlink"><g><path d="M115.9,25H105l0,6.8L84,21.3L-0.5,63.5l5.4,10.7l7.1-3.6V126h104V50.7l7.1,3.6l5.4-10.7l-12.6-6.3V25z    M52,50.7V73H16v-4.3L52,50.7z M52,113H16V87h36V113z M16,83v-6h36v6H16z M16,117h36v5H16V117z M56,122V87h56v35H56z M112,83H56   V48.7l28-14l28,14V83z M123.1,45.3l-1.8,3.6L84,30.2L6.7,68.9l-1.8-3.6L84,25.8l25,12.5l0-9.3h2.9v10.7L123.1,45.3z" fill="#3EBBC4"/><path d="M66,111l36,0V92l-36,0V111z M70,96l28,0v11l-28,0V96z" fill="#3EBBC4"/><path d="M66,71l36,0V52l-36,0V71z M70,56l28,0v11l-28,0V56z" fill="#3EBBC4"/></g></svg>