<?xml version="1.0" encoding="UTF-8" standalone="no"?>
<svg width="24px" height="32px" viewBox="0 0 24 32" version="1.1" xmlns="http://www.w3.org/2000/svg" xmlns:xlink="http://www.w3.org/1999/xlink">
    <!-- Generator: Sketch 44.1 (41455) - http://www.bohemiancoding.com/sketch -->
    <title>Voice</title>
    <desc>Created with Sketch.</desc>
    <defs></defs>
    <g id="Page-2-Copy" stroke="none" stroke-width="1" fill="none" fill-rule="evenodd">
        <g id="165" stroke="#979797" transform="translate(-4.000000, 0.000000)" fill="#95909E">
            <path d="M15,27.9589493 L15,30 L11.0024733,30 C10.4488226,30 10,30.4438648 10,31 C10,31.5522847 10.455761,32 11.0024733,32 L20.9975267,32 C21.5511774,32 22,31.5561352 22,31 C22,30.4477153 21.544239,30 20.9975267,30 L17,30 L17,30 L17,27.9590017 C23.1629717,27.4514605 28,22.2942549 28,15.9914723 L28,15.0026844 C28,14.4503997 27.5522847,14.0026844 27,14.0026844 C26.4477153,14.0026844 26,14.4503997 26,15.0026844 L26,15.9914723 C26,21.5268923 21.5269883,26 16,26 C10.4762378,26 6,21.524568 6,16.0029027 L6,15 C6,14.4477153 5.55228475,14 5,14 C4.44771525,14 4,14.4477153 4,15 L4,16.0029027 C4,22.2925599 8.83977797,27.4510205 15,27.9589493 L15,27.9589493 L15,27.9589493 Z M8,7.99165249 L8,16.0083475 C8,20.4220153 11.5907123,24 16,24 C20.418278,24 24,20.4199239 24,16.0083475 L24,7.99165249 C24,3.57798469 20.4092877,0 16,0 C11.581722,0 8,3.5800761 8,7.99165249 L8,7.99165249 Z M22,7.99165249 L22,16.0083475 C22,19.31569 19.3133719,22 16,22 C12.6913628,22 10,19.3135308 10,16.0083475 L10,7.99165249 C10,4.68430995 12.6866281,2 16,2 C19.3086372,2 22,4.68646918 22,7.99165249 L22,7.99165249 Z" id="Rectangle-812" stroke="none"></path>
        </g>
    </g>
</svg>